<?xml version="1.0" encoding="UTF-8"?>
<svg width="842" height="678.38" data-name="Layer 1" version="1.1" viewBox="0 0 842 678.38" xmlns="http://www.w3.org/2000/svg" xmlns:cc="http://creativecommons.org/ns#" xmlns:dc="http://purl.org/dc/elements/1.1/" xmlns:rdf="http://www.w3.org/1999/02/22-rdf-syntax-ns#">
 <metadata>
  <rdf:RDF>
   <cc:Work rdf:about="">
    <dc:format>image/svg+xml</dc:format>
    <dc:type rdf:resource="http://purl.org/dc/dcmitype/StillImage"/>
    <dc:title>business_shop</dc:title>
   </cc:Work>
  </rdf:RDF>
 </metadata>
 <title>business_shop</title>
 <ellipse cx="426" cy="645.88" rx="416" ry="32.5" fill="#3f3d56"/>
 <g fill="#a0616a">
  <polygon points="779.37 585.5 783.27 614.09 755.98 616.69 759.87 581.6"/>
  <path transform="translate(-179 -110.81)" d="m829.7 303.81s2.5993 35.091 2.5993 36.391-18.195 90.977-18.195 90.977-25.993 49.387 0 48.088 18.195-46.788 18.195-46.788l27.293-75.381-11.697-53.286z"/>
  <polygon points="693.59 585.5 689.69 614.09 716.98 616.69 713.09 581.6"/>
 </g>
 <g fill="#2f2e41">
  <path transform="translate(-179 -110.81)" d="m842.7 428.58-6.4983 9.0977s-3.899 38.99 0 51.987 11.697 72.781 11.697 76.68 1.2997 6.4983 0 7.798-5.1987 1.2997-2.5993 3.899 2.5993 10.397 2.5993 10.397v6.4983l16.896 96.175s-10.397 11.697-2.5993 11.697 36.391 0 35.091-12.997l-2.5993-1.2997s-3.899-85.778-2.5993-89.677 0-11.697 0-11.697-2.5993-3.899 0-5.1987 2.5993-11.697 2.5993-11.697l11.697-79.28s10.397 53.286 16.896 58.485 5.1987 18.195 5.1987 18.195l5.1987 114.37s-5.1987 12.997 0 15.596 27.293 11.697 28.593-1.2997 7.798-126.07 7.798-131.27-1.2997-7.798 0-11.697-1.2997-3.899 0-3.899-2.5993-3.899-2.5993-6.4983v-63.684s1.2997-12.997 2.5993-15.596-1.2997-5.1987 0-9.0977-2.5993-16.896-2.5993-16.896l-58.485-15.596z"/>
  <path transform="translate(-179 -110.81)" d="m888.19 719.71s6.4983-6.4983-2.5993-6.4983a42.303 42.303 0 0 0-16.896 3.899l-6.4983 23.394s-26.643 21.445 3.2492 18.845 25.344-0.64983 25.344-0.64983 9.0977-2.5993 10.397-5.1987-2.5993-40.29-2.5993-40.29-3.899 10.397-10.397 6.4983z"/>
  <path transform="translate(-179 -110.81)" d="m944.07 719.71s-6.4983-6.4983 2.5993-6.4983a42.303 42.303 0 0 1 16.896 3.899l6.4983 23.394s26.643 21.445-3.2492 18.845-29.243-0.64983-29.243-0.64983-9.0977-2.5993-10.397-5.1987 6.4983-40.29 6.4983-40.29 3.899 10.397 10.397 6.4984z"/>
 </g>
 <circle cx="680.59" cy="56.536" r="33.791" fill="#a0616a"/>
 <path transform="translate(-179 -110.81)" d="m847.9 192.04s5.1987 25.993 5.1987 29.892 22.094 15.596 22.094 15.596l24.694-31.192s-15.596-22.094-15.596-27.293z" fill="#a0616a"/>
 <path transform="translate(-179 -110.81)" d="m867.39 225.83s-11.328-3.015-14.761-8.0058c0 0-35.926 35.299-35.926 41.797l28.593 50.687s0 18.195 2.5993 19.495 0 0 0 5.1987-7.798 38.99-5.1987 44.189 5.1987 1.2997 2.5993 9.0977-9.0977 49.387-9.0977 49.387 23.394-7.798 57.185 5.1987 74.081-5.1987 74.081-5.1987-10.397-23.394-7.798-31.192-6.4983-22.094-6.4983-22.094l-6.4983-119.57s9.0977-53.286 2.5993-55.886l-12.997-5.1987-41.621-5.1153s-10.366 25.91-27.262 27.21z" fill="#00f"/>
 <path transform="translate(-179 -110.81)" d="m829.7 250.53-12.997 9.0977s-6.4983 19.495 0 28.593 9.0977 22.094 9.0977 22.094l25.993-2.5993z" fill="#00f"/>
 <path transform="translate(-179 -110.81)" d="m833.79 131.64-5.8615-2.3466s12.256-13.493 29.308-12.32l-4.7959-5.28s11.723-4.6932 22.38 7.6265c5.6023 6.4762 12.084 14.089 16.125 22.664h6.2773l-2.6199 5.7688 9.1697 5.7687-9.4118-1.0362a31.921 31.921 0 0 1-0.8902 14.94l0.25228 4.5596s-10.91-16.879-10.91-19.226v5.8665s-5.8615-5.2799-5.8615-8.7998l-3.1972 4.1066-1.5986-6.4532-19.716 6.4532 3.1972-5.2799-12.256 1.76 4.7959-6.4532s-13.854 7.6265-14.387 14.08c-0.53281 6.4531-7.46 14.666-7.46 14.666l-3.1972-5.8665s-4.7959-26.399 10.657-35.199z" fill="#2f2e41"/>
 <rect x="146.17" y="282.83" width="516.46" height="362.8" fill="#5cb85c"/>
 <rect x="189.64" y="421.26" width="129.68" height="226.37" fill="#3f3d56"/>
 <g fill="#de8787">
  <rect x="213.63" y="434.84" width="34.932" height="32.563"/>
  <rect x="260.4" y="434.84" width="34.932" height="32.563"/>
  <rect x="213.63" y="479.24" width="34.932" height="33.748"/>
  <rect x="260.4" y="479.24" width="34.932" height="33.748"/>
 </g>
 <circle cx="302.83" cy="549.68" r="8.2454" fill="#3c40c6"/>
 <rect x="362.8" y="399.77" width="256.36" height="215.13" fill="#3f3d56"/>
 <polygon points="716.6 351.13 92.199 351.13 133.83 264.09 143.15 244.6 155.34 219.12 164.65 199.63 175.46 177.05 667.41 177.05 673.79 199.63 679.3 219.12 686.5 244.6 692.01 264.09" fill="#3f3d56"/>
 <rect x="371.79" y="488.97" width="8.995" height="55.469" fill="#3c40c6"/>
 <rect x="371.79" y="497.21" width="8.995" height="6.7462" fill="#0f0"/>
 <rect x="371.79" y="529.44" width="8.995" height="6.7462" fill="#0f0"/>
 <rect x="385.29" y="488.97" width="21.738" height="55.469" fill="#3c40c6"/>
 <rect x="385.29" y="497.21" width="21.738" height="6.7462" fill="#0f0"/>
 <rect x="385.29" y="529.44" width="21.738" height="6.7462" fill="#0f0"/>
 <rect x="412.27" y="488.97" width="8.995" height="55.469" fill="#3c40c6"/>
 <rect x="412.27" y="497.21" width="8.995" height="6.7462" fill="#0f0"/>
 <rect x="412.27" y="529.44" width="8.995" height="6.7462" fill="#0f0"/>
 <rect x="425.76" y="488.97" width="8.995" height="55.469" fill="#3c40c6"/>
 <rect x="425.76" y="497.21" width="8.995" height="6.7462" fill="#0f0"/>
 <rect x="425.76" y="529.44" width="8.995" height="6.7462" fill="#0f0"/>
 <rect transform="translate(-359.98 151.03) rotate(-20.654)" x="623.5" y="599.78" width="8.995" height="55.469" fill="#3c40c6"/>
 <rect transform="translate(-355.02 148.06) rotate(-20.654)" x="617.82" y="609.06" width="8.995" height="6.7462" fill="#0f0"/>
 <rect transform="translate(-364.93 154.01) rotate(-20.654)" x="629.19" y="639.22" width="8.995" height="6.7462" fill="#0f0"/>
 <rect x="589.17" y="488.97" width="21.738" height="55.469" fill="#3c40c6"/>
 <rect x="589.17" y="497.21" width="21.738" height="6.7462" fill="#0f0"/>
 <rect x="589.17" y="529.44" width="21.738" height="6.7462" fill="#0f0"/>
 <rect x="574.93" y="488.97" width="8.995" height="55.469" fill="#3c40c6"/>
 <rect x="574.93" y="497.21" width="8.995" height="6.7462" fill="#0f0"/>
 <rect x="574.93" y="529.44" width="8.995" height="6.7462" fill="#0f0"/>
 <rect x="561.44" y="488.97" width="8.995" height="55.469" fill="#3c40c6"/>
 <rect x="561.44" y="497.21" width="8.995" height="6.7462" fill="#0f0"/>
 <rect x="561.44" y="529.44" width="8.995" height="6.7462" fill="#0f0"/>
 <rect transform="translate(-296.13 974.88) rotate(-69.346)" x="698.46" y="623.02" width="55.469" height="8.995" fill="#3c40c6"/>
 <rect transform="translate(-278.34 970.44) rotate(-69.346)" x="728.51" y="607.94" width="6.7462" height="8.995" fill="#0f0"/>
 <rect transform="translate(-313.92 979.32) rotate(-69.346)" x="717.14" y="638.1" width="6.7462" height="8.995" fill="#0f0"/>
 <rect x="362.8" y="544.44" width="256.36" height="5.2471" fill="#280b0b"/>
 <rect x="474.49" y="488.97" width="47.224" height="55.469" fill="#3c40c6"/>
 <rect x="486.11" y="500.96" width="23.987" height="10.494" fill="#0f0"/>
 <rect x="488.73" y="399.77" width="4.4975" height="47.973" fill="#00f"/>
 <circle cx="490.98" cy="447.74" r="7.4958" fill="#00f"/>
 <polygon points="679.3 219.12 155.34 219.12 164.65 199.63 673.79 199.63" fill="#3c40c6"/>
 <polygon points="692.01 264.09 133.83 264.09 143.15 244.6 686.5 244.6" fill="#3c40c6"/>
 <path transform="translate(-179 -110.81)" d="m925.88 262.22s-7.5262 19.353-5.9541 38.501a20.293 20.293 0 0 0 3.3547 9.5868l-92.204 43.774s-41.662 4.3135-31.264 22.509 48.088-9.0977 48.088-9.0977 98.775-14.296 106.57-28.593 12.997-74.081 12.997-74.081z" fill="#a0616a"/>
 <path transform="translate(-179 -110.81)" d="m929.78 208.94h19.495s14.296 2.5993 18.195 28.593 7.798 32.492 3.899 32.492-50.687-1.2997-50.687-2.5993 9.0976-58.485 9.0976-58.485z" fill="#00f"/>
 <circle cx="100" cy="386.38" r="100" fill="#ff0"/>
 <circle cx="100" cy="386.38" r="86" fill="#a80" opacity=".1"/>
 <path transform="translate(-179 -110.81)" d="m274.88 547.94v-12.517c-6.3273-0.12344-12.873-2.355-16.691-5.4531l2.618-8.3032a26.681 26.681 0 0 0 15.709 5.3285c7.7458 0 12.982-5.081 12.982-12.145 0-6.8164-4.2548-11.03-12.328-14.748-11.128-4.957-18-10.658-18-21.44 0-10.287 6.4365-18.094 16.473-19.953v-12.517h6.7636v12.021a26.543 26.543 0 0 1 14.182 4.3373l-2.7277 8.1797a24.107 24.107 0 0 0-13.746-4.2139c-8.3999 0-11.564 5.7006-11.564 10.658 0 6.4443 4.0364 9.6664 13.528 14.128 11.236 5.2051 16.909 11.649 16.909 22.679 0 9.7905-6.0003 18.962-17.237 21.068v12.89z" fill="#d4af37"/>
</svg>
